<mxfile host="app.diagrams.net" agent="Mozilla/5.0 (Windows NT 10.0; Win64; x64) AppleWebKit/537.36 (KHTML, like Gecko) Chrome/140.0.0.0 Safari/537.36" version="28.2.5">
  <diagram name="第 1 页" id="ymwS_IY8MIXRyYueqAV2">
    <mxGraphModel dx="689" dy="368" grid="1" gridSize="10" guides="1" tooltips="1" connect="1" arrows="1" fold="1" page="1" pageScale="1" pageWidth="1169" pageHeight="827" math="0" shadow="0">
      <root>
        <mxCell id="0" />
        <mxCell id="1" parent="0" />
        <mxCell id="_RP0dMVc5jquQAwwALMM-1" value="" style="rounded=0;whiteSpace=wrap;html=1;fillStyle=auto;fillColor=#808080;" parent="1" vertex="1">
          <mxGeometry x="440" y="240" width="240" height="120" as="geometry" />
        </mxCell>
        <mxCell id="amTEWInF5iUkod_gDk52-8" value="" style="endArrow=none;html=1;rounded=0;" parent="1" edge="1">
          <mxGeometry width="50" height="50" relative="1" as="geometry">
            <mxPoint x="440" y="396" as="sourcePoint" />
            <mxPoint x="440" y="360" as="targetPoint" />
          </mxGeometry>
        </mxCell>
        <mxCell id="amTEWInF5iUkod_gDk52-11" value="" style="endArrow=classic;startArrow=classic;html=1;rounded=0;" parent="1" edge="1">
          <mxGeometry width="50" height="50" relative="1" as="geometry">
            <mxPoint x="440" y="390" as="sourcePoint" />
            <mxPoint x="560" y="390" as="targetPoint" />
          </mxGeometry>
        </mxCell>
        <mxCell id="amTEWInF5iUkod_gDk52-12" value="40" style="text;html=1;align=center;verticalAlign=middle;resizable=0;points=[];autosize=1;strokeColor=none;fillColor=none;rotation=0;" parent="1" vertex="1">
          <mxGeometry x="483" y="360" width="40" height="30" as="geometry" />
        </mxCell>
        <mxCell id="amTEWInF5iUkod_gDk52-1" value="F=2" style="text;html=1;align=center;verticalAlign=middle;resizable=0;points=[];autosize=1;strokeColor=none;fillColor=none;" parent="1" vertex="1">
          <mxGeometry x="523" y="328" width="40" height="30" as="geometry" />
        </mxCell>
        <mxCell id="aA4TWFpYKM8wpIwpPznY-1" value="" style="endArrow=none;html=1;rounded=0;" parent="1" edge="1">
          <mxGeometry width="50" height="50" relative="1" as="geometry">
            <mxPoint x="680" y="396" as="sourcePoint" />
            <mxPoint x="680" y="360" as="targetPoint" />
          </mxGeometry>
        </mxCell>
        <mxCell id="amTEWInF5iUkod_gDk52-6" value="40" style="text;html=1;align=center;verticalAlign=middle;resizable=0;points=[];autosize=1;strokeColor=none;fillColor=none;rotation=270;" parent="1" vertex="1">
          <mxGeometry x="700" y="285" width="40" height="30" as="geometry" />
        </mxCell>
        <mxCell id="XUG5wZhUHYnuv1nZyqvW-11" value="" style="endArrow=classic;html=1;rounded=0;" edge="1" parent="1" target="XUG5wZhUHYnuv1nZyqvW-10">
          <mxGeometry width="50" height="50" relative="1" as="geometry">
            <mxPoint x="560" y="330" as="sourcePoint" />
            <mxPoint x="560" y="360" as="targetPoint" />
          </mxGeometry>
        </mxCell>
        <mxCell id="XUG5wZhUHYnuv1nZyqvW-12" value="F=2" style="text;html=1;align=center;verticalAlign=middle;resizable=0;points=[];autosize=1;strokeColor=none;fillColor=none;" vertex="1" parent="1">
          <mxGeometry x="523" y="208" width="40" height="30" as="geometry" />
        </mxCell>
        <mxCell id="XUG5wZhUHYnuv1nZyqvW-13" value="" style="endArrow=classic;html=1;rounded=0;" edge="1" parent="1" target="XUG5wZhUHYnuv1nZyqvW-14">
          <mxGeometry width="50" height="50" relative="1" as="geometry">
            <mxPoint x="560" y="210" as="sourcePoint" />
            <mxPoint x="560" y="240" as="targetPoint" />
          </mxGeometry>
        </mxCell>
        <mxCell id="XUG5wZhUHYnuv1nZyqvW-14" value="" style="ellipse;whiteSpace=wrap;html=1;aspect=fixed;strokeWidth=1;" vertex="1" parent="1">
          <mxGeometry x="558" y="238" width="4" height="4" as="geometry" />
        </mxCell>
        <mxCell id="amTEWInF5iUkod_gDk52-2" value="" style="endArrow=none;html=1;rounded=0;" parent="1" edge="1">
          <mxGeometry width="50" height="50" relative="1" as="geometry">
            <mxPoint x="715" y="360" as="sourcePoint" />
            <mxPoint x="680" y="360" as="targetPoint" />
          </mxGeometry>
        </mxCell>
        <mxCell id="amTEWInF5iUkod_gDk52-4" value="" style="endArrow=none;html=1;rounded=0;" parent="1" edge="1">
          <mxGeometry width="50" height="50" relative="1" as="geometry">
            <mxPoint x="717" y="240" as="sourcePoint" />
            <mxPoint x="680" y="240" as="targetPoint" />
          </mxGeometry>
        </mxCell>
        <mxCell id="amTEWInF5iUkod_gDk52-5" value="" style="endArrow=classic;startArrow=classic;html=1;rounded=0;" parent="1" edge="1">
          <mxGeometry width="50" height="50" relative="1" as="geometry">
            <mxPoint x="710" y="360" as="sourcePoint" />
            <mxPoint x="710" y="240" as="targetPoint" />
          </mxGeometry>
        </mxCell>
        <mxCell id="XUG5wZhUHYnuv1nZyqvW-43" value="20" style="text;html=1;align=center;verticalAlign=middle;resizable=0;points=[];autosize=1;strokeColor=none;fillColor=none;rotation=270;" vertex="1" parent="1">
          <mxGeometry x="380" y="314" width="40" height="30" as="geometry" />
        </mxCell>
        <mxCell id="XUG5wZhUHYnuv1nZyqvW-44" value="" style="group" vertex="1" connectable="0" parent="1">
          <mxGeometry x="405" y="298.9" width="35" height="61.10000000000002" as="geometry" />
        </mxCell>
        <mxCell id="_RP0dMVc5jquQAwwALMM-9" value="" style="endArrow=none;html=1;rounded=0;" parent="XUG5wZhUHYnuv1nZyqvW-44" edge="1">
          <mxGeometry width="50" height="50" relative="1" as="geometry">
            <mxPoint x="5" y="9.100000000000023" as="sourcePoint" />
            <mxPoint x="35" y="29.100000000000023" as="targetPoint" />
          </mxGeometry>
        </mxCell>
        <mxCell id="_RP0dMVc5jquQAwwALMM-10" value="" style="endArrow=none;html=1;rounded=0;" parent="XUG5wZhUHYnuv1nZyqvW-44" edge="1">
          <mxGeometry width="50" height="50" relative="1" as="geometry">
            <mxPoint x="5" y="20.100000000000023" as="sourcePoint" />
            <mxPoint x="35" y="40.10000000000002" as="targetPoint" />
          </mxGeometry>
        </mxCell>
        <mxCell id="_RP0dMVc5jquQAwwALMM-11" value="" style="endArrow=none;html=1;rounded=0;" parent="XUG5wZhUHYnuv1nZyqvW-44" edge="1">
          <mxGeometry width="50" height="50" relative="1" as="geometry">
            <mxPoint x="5" y="31.100000000000023" as="sourcePoint" />
            <mxPoint x="35" y="51.10000000000002" as="targetPoint" />
          </mxGeometry>
        </mxCell>
        <mxCell id="_RP0dMVc5jquQAwwALMM-12" value="" style="endArrow=none;html=1;rounded=0;" parent="XUG5wZhUHYnuv1nZyqvW-44" edge="1">
          <mxGeometry width="50" height="50" relative="1" as="geometry">
            <mxPoint x="5" y="41.10000000000002" as="sourcePoint" />
            <mxPoint x="35" y="61.10000000000002" as="targetPoint" />
          </mxGeometry>
        </mxCell>
        <mxCell id="_RP0dMVc5jquQAwwALMM-16" value="" style="endArrow=none;html=1;rounded=0;startSize=6;" parent="XUG5wZhUHYnuv1nZyqvW-44" edge="1">
          <mxGeometry width="50" height="50" relative="1" as="geometry">
            <mxPoint x="5" y="52.10000000000002" as="sourcePoint" />
            <mxPoint x="20" y="61.10000000000002" as="targetPoint" />
          </mxGeometry>
        </mxCell>
        <mxCell id="XUG5wZhUHYnuv1nZyqvW-34" value="" style="endArrow=none;html=1;rounded=0;" edge="1" parent="XUG5wZhUHYnuv1nZyqvW-44">
          <mxGeometry width="50" height="50" relative="1" as="geometry">
            <mxPoint x="35" y="61.10000000000002" as="sourcePoint" />
            <mxPoint y="61.10000000000002" as="targetPoint" />
          </mxGeometry>
        </mxCell>
        <mxCell id="XUG5wZhUHYnuv1nZyqvW-35" value="" style="endArrow=none;html=1;rounded=0;" edge="1" parent="XUG5wZhUHYnuv1nZyqvW-44">
          <mxGeometry width="50" height="50" relative="1" as="geometry">
            <mxPoint x="35" as="sourcePoint" />
            <mxPoint as="targetPoint" />
          </mxGeometry>
        </mxCell>
        <mxCell id="XUG5wZhUHYnuv1nZyqvW-36" value="" style="endArrow=none;html=1;rounded=0;" edge="1" parent="XUG5wZhUHYnuv1nZyqvW-44">
          <mxGeometry width="50" height="50" relative="1" as="geometry">
            <mxPoint x="8" y="0.10000000000002274" as="sourcePoint" />
            <mxPoint x="35" y="19.100000000000023" as="targetPoint" />
          </mxGeometry>
        </mxCell>
        <mxCell id="XUG5wZhUHYnuv1nZyqvW-37" value="" style="endArrow=none;html=1;rounded=0;startSize=6;" edge="1" parent="XUG5wZhUHYnuv1nZyqvW-44">
          <mxGeometry width="50" height="50" relative="1" as="geometry">
            <mxPoint x="24" y="0.10000000000002274" as="sourcePoint" />
            <mxPoint x="35" y="8.100000000000023" as="targetPoint" />
          </mxGeometry>
        </mxCell>
        <mxCell id="XUG5wZhUHYnuv1nZyqvW-42" value="" style="endArrow=classic;startArrow=classic;html=1;rounded=0;" edge="1" parent="XUG5wZhUHYnuv1nZyqvW-44">
          <mxGeometry width="50" height="50" relative="1" as="geometry">
            <mxPoint x="5" y="61.10000000000002" as="sourcePoint" />
            <mxPoint x="5" y="0.10000000000002274" as="targetPoint" />
          </mxGeometry>
        </mxCell>
        <mxCell id="XUG5wZhUHYnuv1nZyqvW-46" value="" style="endArrow=none;html=1;rounded=0;" edge="1" parent="1">
          <mxGeometry width="50" height="50" relative="1" as="geometry">
            <mxPoint x="710" y="308.1" as="sourcePoint" />
            <mxPoint x="680" y="328.1" as="targetPoint" />
          </mxGeometry>
        </mxCell>
        <mxCell id="XUG5wZhUHYnuv1nZyqvW-47" value="" style="endArrow=none;html=1;rounded=0;" edge="1" parent="1">
          <mxGeometry width="50" height="50" relative="1" as="geometry">
            <mxPoint x="710" y="319.1" as="sourcePoint" />
            <mxPoint x="680" y="339.1" as="targetPoint" />
          </mxGeometry>
        </mxCell>
        <mxCell id="XUG5wZhUHYnuv1nZyqvW-48" value="" style="endArrow=none;html=1;rounded=0;" edge="1" parent="1">
          <mxGeometry width="50" height="50" relative="1" as="geometry">
            <mxPoint x="710" y="330.1" as="sourcePoint" />
            <mxPoint x="680" y="350.1" as="targetPoint" />
          </mxGeometry>
        </mxCell>
        <mxCell id="XUG5wZhUHYnuv1nZyqvW-49" value="" style="endArrow=none;html=1;rounded=0;" edge="1" parent="1">
          <mxGeometry width="50" height="50" relative="1" as="geometry">
            <mxPoint x="710" y="340.1" as="sourcePoint" />
            <mxPoint x="680" y="360.1" as="targetPoint" />
          </mxGeometry>
        </mxCell>
        <mxCell id="XUG5wZhUHYnuv1nZyqvW-50" value="" style="endArrow=none;html=1;rounded=0;startSize=6;" edge="1" parent="1">
          <mxGeometry width="50" height="50" relative="1" as="geometry">
            <mxPoint x="710" y="351.1" as="sourcePoint" />
            <mxPoint x="695" y="360.1" as="targetPoint" />
          </mxGeometry>
        </mxCell>
        <mxCell id="XUG5wZhUHYnuv1nZyqvW-53" value="" style="endArrow=none;html=1;rounded=0;" edge="1" parent="1">
          <mxGeometry width="50" height="50" relative="1" as="geometry">
            <mxPoint x="707" y="300" as="sourcePoint" />
            <mxPoint x="680" y="318.1" as="targetPoint" />
          </mxGeometry>
        </mxCell>
        <mxCell id="XUG5wZhUHYnuv1nZyqvW-54" value="" style="endArrow=none;html=1;rounded=0;startSize=6;" edge="1" parent="1">
          <mxGeometry width="50" height="50" relative="1" as="geometry">
            <mxPoint x="691" y="300" as="sourcePoint" />
            <mxPoint x="680" y="307.1" as="targetPoint" />
          </mxGeometry>
        </mxCell>
        <mxCell id="XUG5wZhUHYnuv1nZyqvW-56" value="" style="endArrow=classic;startArrow=classic;html=1;rounded=0;" edge="1" parent="1">
          <mxGeometry width="50" height="50" relative="1" as="geometry">
            <mxPoint x="560" y="390" as="sourcePoint" />
            <mxPoint x="680" y="390" as="targetPoint" />
          </mxGeometry>
        </mxCell>
        <mxCell id="XUG5wZhUHYnuv1nZyqvW-57" value="40" style="text;html=1;align=center;verticalAlign=middle;resizable=0;points=[];autosize=1;strokeColor=none;fillColor=none;rotation=0;" vertex="1" parent="1">
          <mxGeometry x="600" y="360" width="40" height="30" as="geometry" />
        </mxCell>
        <mxCell id="XUG5wZhUHYnuv1nZyqvW-58" value="" style="endArrow=none;html=1;rounded=0;" edge="1" parent="1">
          <mxGeometry width="50" height="50" relative="1" as="geometry">
            <mxPoint x="559.86" y="396" as="sourcePoint" />
            <mxPoint x="559.86" y="360" as="targetPoint" />
          </mxGeometry>
        </mxCell>
        <mxCell id="XUG5wZhUHYnuv1nZyqvW-10" value="" style="ellipse;whiteSpace=wrap;html=1;aspect=fixed;strokeWidth=1;" vertex="1" parent="1">
          <mxGeometry x="558" y="358" width="4" height="4" as="geometry" />
        </mxCell>
      </root>
    </mxGraphModel>
  </diagram>
</mxfile>
